<svg xmlns="http://www.w3.org/2000/svg" version="1.1" xmlns:xlink="http://www.w3.org/1999/xlink" xmlns:svgjs="http://svgjs.com/svgjs" width="632.49" height="687.63"><svg id="SvgjsSvg1000" xmlns="http://www.w3.org/2000/svg" viewBox="0 0 632.49 687.63"><defs><style>.b{fill:#12120d;}</style></defs><path class="b" d="M628.26,367.85l-.08-.07c-46.37-44.56-96.31-88.51-148.38-130.59-2.69-2.21-6.29-3.46-9.99-3.37-24.61-.25-48.74,1.42-69.19,3.09-72.97,6.93-139.93,15.59-204.73,26.49-5,.87-8.59,5.19-8.52,10.27,0,.07,0,.14,0,.22-2.19-1.86-4.41-3.69-6.65-5.5-4.58-3.59-10.87-3.78-15.67-.48-12.58,8.66-25.68,18.39-42.49,31.56-26.19,20.57-52.57,42.72-80.66,67.74-11.54,10.36-25.15,22.76-38.61,36.18-2.06,2.06-3.23,4.8-3.3,7.65-.1,3.07,1.1,6.08,3.28,8.26,2.16,2.16,5.08,3.38,8.15,3.32,6.98,.16,13.88-.1,19.12-.35,16.94-.82,35.39-2.7,56.39-5.74,21.96-3.21,47.95-7.41,74.25-14.2,5.27-1.42,8.58-6.39,7.88-11.82-.7-5.4-5.17-9.35-10.65-9.39h-.17c-31.06,.59-63.56,3.54-99.03,9.01,39.96-30.02,77.3-61.17,111.34-92.9,7.4,10.3,15.27,20,22.22,28.36l.07,.09c35.23,40.94,69.67,75.27,105.28,104.96l.09,.08c1.88,1.51,4.23,2.33,6.64,2.33h.11c11.74-.13,24.51-.59,40.17-1.44,38.8-2.15,79.8-5.87,129.04-11.72,55.59-6.77,101.91-14.11,147.23-27.96,5.03-1.21,9.02-4.99,10.47-9.94,1.47-5.03,.07-10.45-3.65-14.14Zm-429.61-84.03c23.32-.32,46.48-1.3,68.12-2.31l7.09-.39c53.97-2.97,109.77-6.05,164.41-13.33,10.2-1.41,19.31-2.87,27.73-4.44,9.08,8.71,19.04,17.99,31.12,28.98,31.55,28.57,58.39,52.02,83.28,72.75-42.74,2.45-84.99,9.26-121.92,15.6-45.01,7.9-97.82,17.83-149.89,31.84-3.11-4.58-6.61-9.5-10.78-15.19-13.54-18.4-28.73-37.36-46.44-57.98-16.02-18.53-33.32-37.77-52.73-55.54Z"></path><path class="b" d="M277.56,74.8c-4.37,3.58-10.01,6.17-15.99,8.91-2.09,.96-4.25,1.95-6.37,3-22.31,10.29-30.5,24.21-24.33,41.38l.05,.13c8.14,21.2,22.14,40.9,40.49,56.97l.18,.15c2,1.63,4.39,2.44,6.77,2.44,2.62,0,5.23-.98,7.29-2.93,2.16-2.04,3.3-4.73,3.37-7.48,5.05,10.41,11.61,20.62,19.3,29.94,8.29,10.09,16.6,18.21,25.44,24.85,1.8,1.32,3.94,1.99,6.09,1.99,1.94,0,3.89-.55,5.57-1.65,4.73-3.08,6.07-9.43,3-14.15l-1.05-1.62c-13.06-20.11-25.4-39.1-33.41-60.12-.37-1.1-.42-1.55-.42-1.71,0,0,0,0,.01-.02,1.16-2.06,5.33-4.68,6.69-5.53,3.7-2.3,7.52-4.29,11.56-6.4,3.07-1.6,6.25-3.25,9.49-5.11,17.18-9.52,26.7-20.89,28.29-33.79,1.14-8.1-.95-15.77-3.15-22.2l-.06-.17c-11.7-31.43-41.29-50.59-64.05-61.12l-.1-.05c-2.99-1.32-6.56-.37-8.5,2.29-2.26,3.12-1.57,7.5,1.53,9.77,4.07,2.98,8.27,6.3,12.47,9.86,15.02,13.11,32.59,31,35.25,53.21l.02,.17c.77,5.26-.41,9.22-23.3,19.86-17.72,8.23-41.99,19.51-36.52,46.72,.36,1.69,.89,3.24,1.36,4.6l.17,.46c.08,.2,.16,.39,.24,.59l-2.13-2.89c-10.04-13.93-20.25-29.09-26.83-45.6l-.1-.24c-.36-.8-.54-1.53-.58-1.95,1.19-3.1,12.38-8.8,16.62-10.96,3.01-1.53,5.62-2.86,7.62-4.13,5.65-3.18,22.04-12.54,24.13-28.76,.96-6.77-.69-13.13-2.62-18.99l-.07-.2c-7.82-21.44-26.15-39.47-54.47-53.6l-.09-.05c-3.13-1.5-6.83-.51-8.8,2.36-2.18,3.18-1.36,7.55,1.81,9.72,7.65,5.27,14.68,11.03,20.85,17.09,12.21,12.17,19.04,23.64,20.86,35.04l.02,.14c.79,4.33-.18,6.98-3.58,9.75Z"></path><path class="b" d="M530.69,472.09h0c-15.59-12.58-37.38-16.39-58.3-10.19-29.63,8.24-53.97,27.06-68.53,53-14.77,26.32-18.19,57.44-9.58,87.71,7.3,24.44,22.07,42.62,41.59,51.2,8.18,3.59,16.83,5.39,25.75,5.39,11.3,0,23.05-2.87,34.85-8.59,36.1-16.53,60.53-53.28,63.76-95.91,2.77-35.08-7.99-65.19-29.53-82.6Zm-90.31,46.5c10.36-11.58,24.58-20.19,41.12-24.89l.1-.03c4.26-1.28,8.36-1.92,12.27-1.92,7.45,0,14.25,2.33,20.31,6.96,13.77,10.53,22.6,32.52,21.98,54.72v.12c-.36,37.57-26.49,71-62.13,79.51-3.63,.86-7.09,1.26-10.39,1.26-22.37,0-36.91-18.54-41.81-39.22-6.53-26.74,.75-56.76,18.55-76.5Z"></path><path class="b" d="M330.37,558.28c-2.95-2.35-6.78-3.28-10.52-2.56-1.78,.31-3.57,.62-5.36,.92-1.14-21.07-7.54-40.47-18.73-56.53-17.99-25.23-47.16-35.29-78.1-26.88-31.56,8.91-57.58,29.48-73.28,57.91-16.12,29.18-19.7,63.21-10.09,95.83,7.86,26.11,23.52,45.55,44.1,54.75,8.8,3.93,18.16,5.9,27.87,5.9,11.84,0,24.2-2.92,36.66-8.74,6.22-2.74,12.23-6.08,17.96-9.96,1.16,1.81,2.32,3.57,3.46,5.26l.81,1.23c3.88,6.03,11,9.43,18.04,8.68,5.5-.51,9.8-3.51,13.26-5.92,.45-.31,.88-.62,1.32-.91l.19-.13c15.51-11.36,27.25-28.84,33.1-49.29,.05-.17,.12-.38,.19-.61,.23-.72,.48-1.46,.62-2.22,2.82-13.39,4.26-27.1,4.27-40.75-.01-6.22-.27-11.36-.8-16.15-.19-3.89-1.99-7.45-4.97-9.82Zm-107.12,104.92c-13.92,4.32-27.14,3.26-38.24-3.06-13.05-7.43-22.62-21.5-26.96-39.64-4.66-19.28-3.04-40.29,4.56-59.15,11.05-27.24,33.35-46.23,64.49-54.92l.3-.09c4.94-1.64,9.72-2.46,14.3-2.46,5.94,0,11.55,1.38,16.78,4.13,11.61,6.11,21.02,19.14,25.81,35.76,1.63,5.61,2.77,11.37,3.41,17.21-16.05,2.48-32.27,4.81-48.03,7.08-1.48,.21-4.17,.61-6.92,1.02-3.08,.46-6.23,.93-7.87,1.16l-2.44,.36c-3.7,.48-6.93,2.95-8.46,6.49-1.55,3.59-1.12,7.71,1.13,10.75l.08,.11c4.24,5.48,7.55,11.69,11.06,18.27,1.15,2.16,2.34,4.39,3.56,6.59,2.03,3.84,4.05,7.7,6.06,11.55,4.43,8.48,8.98,17.21,13.77,25.76-7.97,5.79-16.82,10.18-26.37,13.09h-.03Z"></path></svg><style>@media (prefers-color-scheme: light) { :root { filter: none; } }
</style></svg>